<?xml version="1.0" encoding="utf-8"?>
<!-- Generator: Adobe Illustrator 16.0.0, SVG Export Plug-In . SVG Version: 6.00 Build 0)  -->
<!DOCTYPE svg PUBLIC "-//W3C//DTD SVG 1.1//EN" "http://www.w3.org/Graphics/SVG/1.1/DTD/svg11.dtd">
<svg version="1.1" id="Layer_1" xmlns="http://www.w3.org/2000/svg" xmlns:xlink="http://www.w3.org/1999/xlink" x="0px" y="0px"
	 width="42.25px" height="30px" viewBox="0 0 42.25 30" enable-background="new 0 0 42.25 30" xml:space="preserve">
<path fill="none" stroke="#FFFFFF" stroke-width="2" stroke-linecap="round" stroke-miterlimit="10" d="M29.811,28.184
	c5.092,0,9.22-4.717,9.22-10.533c0-4.706-2.701-8.689-6.431-10.041c-1.841-3.488-4.946-5.778-8.468-5.778
	c-3.531,0-6.644,2.305-8.482,5.808c-0.9-0.336-1.858-0.522-2.855-0.522c-5.092,0-9.219,4.715-9.219,10.534
	c0,5.631,3.868,10.23,8.735,10.519c0.16,0.009,0.322,0.015,0.484,0.015"/>
<g>
	<polyline fill="none" stroke="#FFFFFF" stroke-width="2" stroke-linecap="round" stroke-miterlimit="10" points="27.133,17.638 
		21.699,12.375 16.852,17.638 	"/>
	
		<line fill="none" stroke="#FFFFFF" stroke-width="2" stroke-linecap="round" stroke-miterlimit="10" x1="21.699" y1="12.375" x2="21.699" y2="28.795"/>
</g>
</svg>
