<?xml version="1.0" encoding="iso-8859-1"?>
<!-- Generator: Adobe Illustrator 16.0.0, SVG Export Plug-In . SVG Version: 6.00 Build 0)  -->
<!DOCTYPE svg PUBLIC "-//W3C//DTD SVG 1.1//EN" "http://www.w3.org/Graphics/SVG/1.1/DTD/svg11.dtd">
<svg version="1.1" id="Layer_1" xmlns="http://www.w3.org/2000/svg" xmlns:xlink="http://www.w3.org/1999/xlink" x="0px" y="0px"
	 width="50px" height="30px" viewBox="0 0 50 30" style="enable-background:new 0 0 50 30;" xml:space="preserve">
<path style="fill:#FFC820;" d="M46.005,14.85c0,4.258-3.539,7.709-7.909,7.709H11.434c-4.371,0-7.911-3.451-7.911-7.709
	c0,0-0.001-3.139,0-3.139c0.283-0.881,1.255-2.33,1.707-2.99c0.582-0.85,1.238-1.65,2-2.348c3.685-3.357,9.169-2.35,13.741-2.363
	c2.665-0.008,5.329-0.01,7.995-0.006c2.499,0.003,5.034-0.13,7.528,0.031c2.064,0.133,3.525,0.917,5.202,2.051
	c1.196,0.808,2.172,1.781,3.05,2.927c0.271,0.355,0.527,0.723,0.767,1.1c0.16,0.248,0.756,0.953,0.736,1.242L46.005,14.85z"/>
<circle style="fill:#FFFFFF;stroke:#FFC820;stroke-width:4;stroke-miterlimit:10;" cx="12.703" cy="18.307" r="9.568"/>
<circle style="fill:#FFFFFF;stroke:#FFC820;stroke-width:4;stroke-miterlimit:10;" cx="37.443" cy="18.307" r="9.568"/>
<path style="fill:#FFC820;" d="M14.677,10.203c-1.81-1.365-3.71-2.527-1.286-5.112c0,0,2.842-3.768,2.845-3.772
	c2.995-3.972,8.182,1.965,7.012,5.502C23.152,6.77,22.7,6.381,22.79,6.262l-2.844,3.771C18.846,11.49,16.487,11.566,14.677,10.203z"
	/>
<path style="fill:#FFC820;" d="M35.323,10.203c1.81-1.365,3.712-2.527,1.286-5.112c0,0-2.84-3.768-2.844-3.772
	c-2.996-3.972-8.181,1.965-7.012,5.502c0.096-0.051,0.548-0.439,0.457-0.559l2.846,3.771C31.154,11.49,33.516,11.566,35.323,10.203z
	"/>
</svg>
