<?xml version="1.0" encoding="iso-8859-1"?>
<!-- Generator: Adobe Illustrator 16.0.0, SVG Export Plug-In . SVG Version: 6.00 Build 0)  -->
<!DOCTYPE svg PUBLIC "-//W3C//DTD SVG 1.1//EN" "http://www.w3.org/Graphics/SVG/1.1/DTD/svg11.dtd">
<svg version="1.1" id="Layer_1" xmlns="http://www.w3.org/2000/svg" xmlns:xlink="http://www.w3.org/1999/xlink" x="0px" y="0px"
	 width="24.618px" height="20px" viewBox="0 0 24.618 20" style="enable-background:new 0 0 24.618 20;" xml:space="preserve">
<g>
	<path style="fill:#818285;" d="M12.309,0.27C6.95,0.27,2.59,4.63,2.59,9.988c0,5.36,4.36,9.721,9.719,9.721
		c5.358,0,9.719-4.36,9.719-9.719C22.027,4.631,17.669,0.27,12.309,0.27z M20.806,9.849c-2.524-0.553-4.711-0.514-6.577-0.127
		c-0.241-0.563-0.489-1.109-0.747-1.627c1.774-0.818,3.495-2.097,4.907-4.04C19.854,5.558,20.769,7.598,20.806,9.849z M17.474,3.25
		c-1.298,1.822-2.902,3.01-4.56,3.765C11.549,4.53,10.142,2.737,9.5,1.975c0.881-0.311,1.825-0.488,2.81-0.488
		C14.252,1.487,16.04,2.149,17.474,3.25z M8.33,2.482c0.362,0.413,1.91,2.261,3.427,4.994c-3.34,1.139-6.62,0.759-7.719,0.58
		C4.603,5.641,6.193,3.619,8.33,2.482z M3.808,9.988c0-0.248,0.017-0.491,0.037-0.733c0.558,0.09,1.58,0.22,2.878,0.22
		c1.597,0,3.595-0.205,5.607-0.919c0.236,0.471,0.467,0.965,0.689,1.475c-4.186,1.285-6.518,4.267-7.261,5.372
		C4.541,13.931,3.808,12.044,3.808,9.988z M6.626,16.295c0.399-0.668,2.524-3.905,6.847-5.159c0.807,2.09,1.399,4.44,1.5,6.922
		c-0.839,0.279-1.733,0.435-2.665,0.435C10.124,18.492,8.134,17.655,6.626,16.295z M16.163,17.558
		c-0.153-2.413-0.718-4.681-1.48-6.709c1.712-0.313,3.726-0.304,6.051,0.233C20.367,13.913,18.607,16.311,16.163,17.558z"/>
</g>
</svg>
