<?xml version="1.0" encoding="utf-8"?>
<!-- Generator: Adobe Illustrator 16.0.4, SVG Export Plug-In . SVG Version: 6.00 Build 0)  -->
<!DOCTYPE svg PUBLIC "-//W3C//DTD SVG 1.1//EN" "http://www.w3.org/Graphics/SVG/1.1/DTD/svg11.dtd">
<svg version="1.1" id="Layer_1" xmlns="http://www.w3.org/2000/svg" xmlns:xlink="http://www.w3.org/1999/xlink" x="0px" y="0px"
	 width="17.694px" height="10px" viewBox="42.569 23.267 17.694 10" enable-background="new 42.569 23.267 17.694 10"
	 xml:space="preserve">
<path fill="#F36C61" d="M60.271,28.229c0-0.002-0.002-0.009-0.002-0.022c0-0.001,0-0.003,0-0.008
	c-0.005-0.007-0.005-0.009-0.005-0.016s0-0.014,0-0.017l0,0c-0.025-0.14-0.092-0.27-0.188-0.367c-0.567-0.67-1.236-1.267-1.92-1.806
	c-1.472-1.174-3.153-2.154-5.009-2.55c-1.075-0.225-2.156-0.237-3.233-0.046c-0.98,0.177-1.926,0.543-2.812,0.992
	c-1.386,0.711-2.651,1.688-3.753,2.779c-0.204,0.202-0.407,0.411-0.595,0.632c-0.246,0.292-0.246,0.639,0,0.931
	c0.565,0.674,1.238,1.264,1.92,1.809c1.472,1.175,3.154,2.155,5.012,2.546c1.073,0.231,2.151,0.238,3.231,0.046
	c0.984-0.171,1.929-0.541,2.814-0.991c1.387-0.71,2.65-1.684,3.753-2.779c0.205-0.203,0.404-0.409,0.592-0.63
	c0.096-0.1,0.162-0.228,0.188-0.364v-0.001c0-0.007,0-0.014,0-0.015c0-0.008,0.005-0.014,0.005-0.019c0-0.004,0-0.009,0-0.011
	c0.002-0.007,0.002-0.014,0.002-0.021c0-0.01,0-0.023,0-0.032C60.271,28.252,60.271,28.243,60.271,28.229z M51.421,31.669
	c-1.881,0-3.406-1.521-3.406-3.403c0-1.881,1.524-3.406,3.406-3.406c1.88,0,3.402,1.525,3.402,3.406
	C54.823,30.147,53.301,31.669,51.421,31.669z"/>
<path fill="#F36C61" d="M51.421,27.138c0.623,0,1.126,0.505,1.126,1.128c0,0.622-0.503,1.125-1.126,1.125
	c-0.625,0-1.128-0.504-1.128-1.125C50.293,27.643,50.796,27.138,51.421,27.138z"/>
</svg>
