<?xml version="1.0" encoding="iso-8859-1"?>
<!-- Generator: Adobe Illustrator 16.0.0, SVG Export Plug-In . SVG Version: 6.00 Build 0)  -->
<!DOCTYPE svg PUBLIC "-//W3C//DTD SVG 1.1//EN" "http://www.w3.org/Graphics/SVG/1.1/DTD/svg11.dtd">
<svg version="1.1" id="Layer_1" xmlns="http://www.w3.org/2000/svg" xmlns:xlink="http://www.w3.org/1999/xlink" x="0px" y="0px"
	 width="24.618px" height="20px" viewBox="0 0 24.618 20" style="enable-background:new 0 0 24.618 20;" xml:space="preserve">
<g>
	<path style="fill:#818285;" d="M17.75,3.711c-0.247-1.672-0.695-3.496-0.695-3.496c-1.231,1.254-2.46,1.705-3.409,1.838
		c-0.427-0.056-0.863-0.089-1.311-0.089c-0.129,0-0.256,0.01-0.382,0.014c-0.028-0.009-0.047-0.016-0.047-0.016l0.025,0.016
		c-0.02,0.001-0.036,0.001-0.054,0.002l0.028-0.018c0,0-0.025,0.008-0.063,0.018c-0.388,0.019-0.766,0.057-1.135,0.118
		c-0.991-0.026-2.47-0.375-3.952-1.883c0,0-0.649,2.646-0.818,4.484C5.367,5.451,5.04,6.313,5.04,7.231
		c0,2.91,3.266,5.269,7.295,5.269c4.028,0,7.295-2.359,7.295-5.269C19.63,5.876,18.915,4.645,17.75,3.711z M12.335,12.245
		c-3.081,0-5.579-1.366-5.579-3.294c0-1.929,2.498-3.494,5.579-3.494c3.081,0,5.578,1.565,5.578,3.494
		C17.913,10.879,15.416,12.245,12.335,12.245z"/>
	<ellipse style="fill:#818285;" cx="15.18" cy="8.369" rx="1.018" ry="1.287"/>
	<ellipse style="fill:#818285;" cx="9.49" cy="8.369" rx="1.017" ry="1.287"/>
	<path style="fill:#818285;" d="M15.34,18.238v-4.291H14.48V12.23h-4.291v1.717H9.331v1.196c-0.985-0.173-2.524-0.684-3.025-2.19
		l-0.814,0.271c0.596,1.79,2.55,2.539,3.84,2.776v2.238H8.474v1.717h0.858v-0.858h0.858V17.38h0.857v1.717H10.19v0.858h1.716V17.38
		h0.859v1.717v0.858h1.716v-0.858h-0.858V17.38h0.858v0.858v0.858h0.858v0.858h0.858v-1.717H15.34z"/>
</g>
</svg>
