<?xml version="1.0" encoding="iso-8859-1"?>
<!-- Generator: Adobe Illustrator 16.0.0, SVG Export Plug-In . SVG Version: 6.00 Build 0)  -->
<!DOCTYPE svg PUBLIC "-//W3C//DTD SVG 1.1//EN" "http://www.w3.org/Graphics/SVG/1.1/DTD/svg11.dtd">
<svg version="1.1" id="Layer_1" xmlns="http://www.w3.org/2000/svg" xmlns:xlink="http://www.w3.org/1999/xlink" x="0px" y="0px"
	 width="47.083px" height="30px" viewBox="0 0 47.083 30" style="enable-background:new 0 0 47.083 30;" xml:space="preserve">
<path style="fill:#FFC81F;" d="M41.762,16.23c0.539,1.855-0.375,3.985-2.064,4.617c-10.484,3.924-21.642,4.047-32.221,0.35
	c-1.708-0.596-2.673-2.705-2.18-4.572l0,0c0.493-1.871,2.106-2.857,3.624-2.331c9.575,3.347,19.672,3.235,29.164-0.315
	C39.584,13.417,41.221,14.37,41.762,16.23L41.762,16.23z"/>
<path style="fill:#BF2026;" d="M46.311,17.355c0.674,1.99-0.469,4.272-2.582,4.951c-13.102,4.204-27.043,4.334-40.266,0.373
	c-2.134-0.639-3.341-2.898-2.725-4.9l0,0c0.616-2.006,2.632-3.063,4.528-2.498c11.967,3.586,24.585,3.468,36.447-0.338
	C43.59,14.342,45.637,15.361,46.311,17.355L46.311,17.355z"/>
<path style="fill:#FFC81F;" d="M41.762,21.074c0.539,1.988-0.375,4.271-2.064,4.949c-10.484,4.205-21.642,4.336-32.221,0.375
	c-1.708-0.64-2.673-2.899-2.18-4.901l0,0c0.493-2.006,2.106-3.063,3.624-2.499c9.575,3.586,19.672,3.469,29.164-0.339
	C39.584,18.061,41.221,19.081,41.762,21.074L41.762,21.074z"/>
<g>
	<path style="fill:none;stroke:#7E8081;stroke-linecap:round;stroke-linejoin:round;stroke-miterlimit:10;" d="M23.76,0.724
		c0,0,2.52,2.749-0.494,6.271l0.061-0.056c0,0-2.519,2.75,0.494,6.272"/>
	<path style="fill:none;stroke:#7E8081;stroke-linecap:round;stroke-linejoin:round;stroke-miterlimit:10;" d="M16.875,0.724
		c0,0,2.519,2.749-0.494,6.271l0.06-0.056c0,0-2.519,2.75,0.494,6.272"/>
	<path style="fill:none;stroke:#7E8081;stroke-linecap:round;stroke-linejoin:round;stroke-miterlimit:10;" d="M30.645,0.724
		c0,0,2.52,2.749-0.496,6.271l0.061-0.056c0,0-2.518,2.75,0.494,6.272"/>
</g>
</svg>
