<?xml version="1.0" encoding="iso-8859-1"?>
<!-- Generator: Adobe Illustrator 16.0.0, SVG Export Plug-In . SVG Version: 6.00 Build 0)  -->
<!DOCTYPE svg PUBLIC "-//W3C//DTD SVG 1.1//EN" "http://www.w3.org/Graphics/SVG/1.1/DTD/svg11.dtd">
<svg version="1.1" id="Layer_1" xmlns="http://www.w3.org/2000/svg" xmlns:xlink="http://www.w3.org/1999/xlink" x="0px" y="0px"
	 width="75.708px" height="49px" viewBox="0 -19 75.708 49" style="enable-background:new 0 -19 75.708 49;" xml:space="preserve">
<path style="fill:#FFC81F;" d="M67.203,8.172c0.873,3-0.606,6.446-3.34,7.469c-16.961,6.348-35.01,6.547-52.124,0.566
	c-2.763-0.964-4.324-4.376-3.527-7.397l0,0c0.797-3.027,3.407-4.622,5.862-3.771c15.49,5.414,31.822,5.234,47.179-0.51
	C63.68,3.62,66.328,5.162,67.203,8.172L67.203,8.172z"/>
<path style="fill:#BF2026;" d="M74.561,9.992c1.091,3.219-0.758,6.909-4.177,8.01c-21.194,6.799-43.747,7.011-65.139,0.603
	c-3.452-1.034-5.405-4.688-4.409-7.927l0,0c0.997-3.245,4.258-4.956,7.326-4.041c19.358,5.801,39.771,5.61,58.961-0.547
	C70.161,5.116,73.472,6.765,74.561,9.992L74.561,9.992z"/>
<path style="fill:#FFC81F;" d="M67.203,16.008c0.873,3.217-0.606,6.909-3.34,8.006c-16.961,6.803-35.01,7.015-52.124,0.607
	c-2.763-1.036-4.324-4.69-3.527-7.93l0,0c0.797-3.245,3.407-4.956,5.862-4.042c15.49,5.801,31.822,5.612,47.179-0.548
	C63.68,11.133,66.328,12.783,67.203,16.008L67.203,16.008z"/>
<g>
	<path style="fill:none;stroke:#7E8081;stroke-linecap:round;stroke-linejoin:round;stroke-miterlimit:10;" d="M38.081-16.913
		c0,0,4.076,4.447-0.799,10.145l0.099-0.091c0,0-4.075,4.448,0.798,10.146"/>
	<path style="fill:none;stroke:#7E8081;stroke-linecap:round;stroke-linejoin:round;stroke-miterlimit:10;" d="M26.942-16.913
		c0,0,4.075,4.447-0.799,10.145l0.098-0.091c0,0-4.076,4.448,0.799,10.146"/>
	<path style="fill:none;stroke:#7E8081;stroke-linecap:round;stroke-linejoin:round;stroke-miterlimit:10;" d="M49.219-16.913
		c0,0,4.075,4.447-0.804,10.145l0.098-0.091c0,0-4.072,4.448,0.8,10.146"/>
</g>
</svg>
