<?xml version="1.0" encoding="iso-8859-1"?>
<!-- Generator: Adobe Illustrator 16.0.0, SVG Export Plug-In . SVG Version: 6.00 Build 0)  -->
<!DOCTYPE svg PUBLIC "-//W3C//DTD SVG 1.1//EN" "http://www.w3.org/Graphics/SVG/1.1/DTD/svg11.dtd">
<svg version="1.1" id="Layer_1" xmlns="http://www.w3.org/2000/svg" xmlns:xlink="http://www.w3.org/1999/xlink" x="0px" y="0px"
	 width="30.375px" height="30px" viewBox="0 0 30.375 30" style="enable-background:new 0 0 30.375 30;" xml:space="preserve">
<path style="fill:#FFC721;" d="M29.445,26.089l-9.041-9.041c1.174-1.751,1.806-3.809,1.806-5.964c0-2.867-1.117-5.563-3.145-7.591
	c-2.028-2.027-4.725-3.144-7.592-3.144c-2.868,0-5.563,1.117-7.592,3.144c-2.026,2.028-3.144,4.724-3.144,7.591
	c0,2.868,1.117,5.562,3.146,7.591c2.027,2.028,4.723,3.146,7.592,3.146c2.178,0,4.259-0.646,6.021-1.846l9.032,9.031
	c0.305,0.307,0.865,0.237,1.252-0.148l1.518-1.518C29.685,26.953,29.751,26.393,29.445,26.089z M11.474,18.911
	c-4.315,0-7.827-3.512-7.827-7.828c0-4.315,3.512-7.827,7.827-7.827S19.3,6.768,19.3,11.083C19.3,15.399,15.79,18.911,11.474,18.911
	z"/>
</svg>
