<?xml version="1.0" encoding="utf-8"?>
<!-- Generator: Adobe Illustrator 16.0.4, SVG Export Plug-In . SVG Version: 6.00 Build 0)  -->
<!DOCTYPE svg PUBLIC "-//W3C//DTD SVG 1.1//EN" "http://www.w3.org/Graphics/SVG/1.1/DTD/svg11.dtd">
<svg version="1.1" id="Layer_1" xmlns="http://www.w3.org/2000/svg" xmlns:xlink="http://www.w3.org/1999/xlink" x="0px" y="0px"
	 width="50px" height="50px" viewBox="25 25 50 50" enable-background="new 25 25 50 50" xml:space="preserve">
<g id="Captions">
</g>
<g id="Your_Icon">
	<g>
		<path fill="#FFC721" d="M72.077,65.926l-8.709-8.5c2.367-3.324,3.758-7.361,3.758-11.708c0-11.357-9.473-20.596-21.113-20.596
			c-11.641,0-21.11,9.238-21.11,20.596c0,11.359,9.469,20.597,21.11,20.597c3.208,0,6.248-0.703,8.974-1.957l9.35,9.123
			c1.008,0.98,2.354,1.52,3.785,1.52c1.467,0,2.852-0.561,3.896-1.58C74.153,71.338,74.179,67.973,72.077,65.926z M33.347,45.717
			c0-6.813,5.683-12.359,12.667-12.359s12.667,5.546,12.667,12.359c0,6.816-5.684,12.361-12.667,12.361S33.347,52.533,33.347,45.717
			z"/>
	</g>
</g>
</svg>
