<?xml version="1.0" encoding="utf-8"?>
<!-- Generator: Adobe Illustrator 16.0.4, SVG Export Plug-In . SVG Version: 6.00 Build 0)  -->
<!DOCTYPE svg PUBLIC "-//W3C//DTD SVG 1.1//EN" "http://www.w3.org/Graphics/SVG/1.1/DTD/svg11.dtd">
<svg version="1.1" id="Layer_1" xmlns="http://www.w3.org/2000/svg" xmlns:xlink="http://www.w3.org/1999/xlink" x="0px" y="0px"
	 width="20px" height="20px" viewBox="40 40 20 20" enable-background="new 40 40 20 20" xml:space="preserve">
<g id="Captions">
</g>
<g id="Your_Icon">
	<g>
		<path fill="#969696" d="M59.169,56.155l-3.404-3.322c0.925-1.3,1.469-2.878,1.469-4.578c0-4.439-3.703-8.05-8.253-8.05
			c-4.55,0-8.251,3.611-8.251,8.05c0,4.441,3.701,8.051,8.251,8.051c1.254,0,2.442-0.275,3.508-0.765l3.655,3.566
			c0.394,0.382,0.919,0.593,1.48,0.593c0.572,0,1.113-0.219,1.521-0.616C59.98,58.27,59.989,56.956,59.169,56.155z M44.03,48.255
			c0-2.663,2.221-4.831,4.951-4.831s4.951,2.168,4.951,4.831c0,2.665-2.222,4.832-4.951,4.832S44.03,50.92,44.03,48.255z"/>
	</g>
</g>
</svg>
