<?xml version="1.0" encoding="iso-8859-1"?>
<!-- Generator: Adobe Illustrator 16.0.0, SVG Export Plug-In . SVG Version: 6.00 Build 0)  -->
<!DOCTYPE svg PUBLIC "-//W3C//DTD SVG 1.1//EN" "http://www.w3.org/Graphics/SVG/1.1/DTD/svg11.dtd">
<svg version="1.1" id="Your_Icon" xmlns="http://www.w3.org/2000/svg" xmlns:xlink="http://www.w3.org/1999/xlink" x="0px" y="0px"
	 width="30px" height="30px" viewBox="0 0 30 30" style="enable-background:new 0 0 30 30;" xml:space="preserve">
<path style="fill:#FFFFFF;" d="M29.477,26.489l-9.18-9.18c1.191-1.777,1.832-3.867,1.832-6.055c0-2.911-1.133-5.648-3.191-7.709
	c-2.059-2.058-4.795-3.191-7.707-3.191S5.582,1.488,3.521,3.546C1.464,5.605,0.33,8.343,0.33,11.255s1.134,5.646,3.191,7.707
	c2.06,2.059,4.795,3.191,7.709,3.191c2.211,0,4.323-0.654,6.112-1.874l9.171,9.173c0.309,0.308,0.879,0.24,1.271-0.15l1.541-1.542
	C29.718,27.368,29.785,26.798,29.477,26.489z M11.23,19.202c-4.383,0-7.947-3.564-7.947-7.947c0-4.381,3.564-7.946,7.947-7.946
	c4.381,0,7.946,3.565,7.946,7.946C19.177,15.638,15.611,19.202,11.23,19.202z"/>
</svg>
