<?xml version="1.0" encoding="iso-8859-1"?>
<!-- Generator: Adobe Illustrator 16.0.0, SVG Export Plug-In . SVG Version: 6.00 Build 0)  -->
<!DOCTYPE svg PUBLIC "-//W3C//DTD SVG 1.1//EN" "http://www.w3.org/Graphics/SVG/1.1/DTD/svg11.dtd">
<svg version="1.1" id="Layer_1" xmlns="http://www.w3.org/2000/svg" xmlns:xlink="http://www.w3.org/1999/xlink" x="0px" y="0px"
	 width="24.618px" height="20px" viewBox="0 0 24.618 20" style="enable-background:new 0 0 24.618 20;" xml:space="preserve">
<g>
	<path style="fill:#818285;" d="M21.778,5.066c0.279,3.305-1.078,6.119-1.528,7.127c-0.451,1.008-2.678,5.46-8.971,7.233
		C4.984,21.2,0.083,17.618,0.083,17.618c4.416,0.557,7.197-2.052,7.197-2.052c-3.755-0.348-4.485-3.442-4.485-3.442
		c1.599,0.244,2.016-0.174,2.016-0.174c-4.068-1.216-3.79-4.868-3.79-4.868c1.668,0.8,2.121,0.487,2.121,0.487
		c-3.65-2.955-1.425-6.57-1.425-6.57c4.764,5.563,10.187,5.215,10.187,5.215c-0.138-1.206-0.138-4.428,3.061-5.725
		c3.211-1.302,5.564,1.181,5.564,1.181c1.286-0.079,3.491-1.27,3.491-1.27c-0.255,1.368-2.528,2.836-2.528,2.836
		c1.146-0.082,2.851-0.799,2.851-0.799C24.098,3.108,21.778,5.066,21.778,5.066z"/>
</g>
</svg>
