<?xml version="1.0" encoding="iso-8859-1"?>
<!-- Generator: Adobe Illustrator 16.0.0, SVG Export Plug-In . SVG Version: 6.00 Build 0)  -->
<!DOCTYPE svg PUBLIC "-//W3C//DTD SVG 1.1//EN" "http://www.w3.org/Graphics/SVG/1.1/DTD/svg11.dtd">
<svg version="1.1" id="Layer_1" xmlns="http://www.w3.org/2000/svg" xmlns:xlink="http://www.w3.org/1999/xlink" x="0px" y="0px"
   width="50px" height="30px" viewBox="0 0 50 30" style="enable-background:new 0 0 50 30;" xml:space="preserve">
<path style="fill:#FFC820;" d="M2.881,30.114"/>
<path d="M35.059,29.758v-0.48c0-1.063,0.633-1.926,1.418-1.926h11.44c0.782,0,1.416,0.861,1.416,1.926v0.48"/>
<polyline style="fill:none;stroke:#000000;stroke-width:2;stroke-miterlimit:10;" points="42.236,28.59 42.236,12.713 36.26,5.287
  "/>
<path d="M34.146,13.039c2.121-2.135,2.019-5.673-0.228-7.901L33.165,4.39c-2.245-2.229-5.783-2.304-7.901-0.168l-3.033,3.055
  l8.885,8.817L34.146,13.039z"/>
<path d="M36.555,0.925l-0.856,0.76l0.759,0.852l0.855-0.759c0.344-0.307,0.469-0.73,0.277-0.945l-0.064-0.072
  C37.335,0.545,36.898,0.619,36.555,0.925z"/>
<rect x="29.546" y="2.286" transform="matrix(-0.7315 0.6819 -0.6819 -0.7315 60.9928 -14.9216)" width="7.778" height="4.525"/>
<polygon style="fill:#FFC820;" points="22.231,8.258 0,29.758 26.523,29.758 30.249,16.094 "/>
</svg>