<?xml version="1.0" encoding="iso-8859-1"?>
<!-- Generator: Adobe Illustrator 16.0.0, SVG Export Plug-In . SVG Version: 6.00 Build 0)  -->
<!DOCTYPE svg PUBLIC "-//W3C//DTD SVG 1.1//EN" "http://www.w3.org/Graphics/SVG/1.1/DTD/svg11.dtd">
<svg version="1.1" id="Layer_1" xmlns="http://www.w3.org/2000/svg" xmlns:xlink="http://www.w3.org/1999/xlink" x="0px" y="0px"
   width="42.25px" height="30px" viewBox="-8.625 0 42.25 30" style="enable-background:new -8.625 0 42.25 30;"
   xml:space="preserve">
<path style="fill:none;stroke:#FFFFFF;stroke-width:2;stroke-linecap:round;stroke-miterlimit:10;" d="M20.473,27.215
  c4.832,0,8.75-4.477,8.75-9.996c0-4.466-2.564-8.247-6.104-9.529c-1.746-3.31-4.693-5.484-8.035-5.484
  c-3.351,0-6.305,2.187-8.05,5.512C6.18,7.399,5.271,7.222,4.324,7.222c-4.832,0-8.749,4.475-8.749,9.997
  c0,5.344,3.671,9.709,8.29,9.982c0.152,0.008,0.306,0.014,0.459,0.014"/>
<g>
  <polyline style="fill:none;stroke:#FFFFFF;stroke-width:2;stroke-linecap:round;stroke-miterlimit:10;" points="17.932,17.207
    12.775,12.212 8.175,17.207  "/>

    <line style="fill:none;stroke:#FFFFFF;stroke-width:2;stroke-linecap:round;stroke-miterlimit:10;" x1="12.775" y1="12.212" x2="12.775" y2="27.795"/>
</g>
</svg>